<svg width="528" height="527" viewBox="0 0 528 527" fill="none" xmlns="http://www.w3.org/2000/svg">
<circle cx="264.018" cy="263.738" r="243" transform="rotate(94.1587 264.018 263.738)" stroke="url(#paint0_linear)" stroke-width="6" stroke-linecap="round" stroke-dasharray="12 160"/>
<circle cx="263.367" cy="264.114" r="238" transform="rotate(94.1587 263.367 264.114)" stroke="url(#paint1_linear)" stroke-width="5" stroke-linecap="round" stroke-dasharray="12 160"/>
<circle cx="264.686" cy="263.686" r="235" transform="rotate(90.0766 264.686 263.686)" stroke="url(#paint2_linear)" stroke-width="6" stroke-linecap="round" stroke-dasharray="12 40"/>
<circle cx="264.694" cy="263.694" r="229" transform="rotate(90.0766 264.694 263.694)" stroke="url(#paint3_linear)" stroke-width="6" stroke-linecap="round" stroke-dasharray="3 19 21 3 19 21"/>
<circle cx="264.698" cy="263.698" r="226" transform="rotate(90.0766 264.698 263.698)" stroke="url(#paint4_linear)" stroke-width="6" stroke-linecap="round" stroke-dasharray="12 24 12 12 24 12"/>
<circle cx="264.702" cy="263.702" r="223" transform="rotate(90.0766 264.702 263.702)" stroke="url(#paint5_linear)" stroke-width="6" stroke-linecap="round" stroke-dasharray="12 12 12 12 12 12"/>
<circle cx="263.582" cy="263.821" r="220" transform="rotate(90 263.582 263.821)" stroke="url(#paint6_linear)" stroke-width="5" stroke-linecap="round" stroke-dasharray="27 90 18 27 90 18"/>
<circle cx="263.367" cy="263.584" r="217" transform="rotate(93.4411 263.367 263.584)" stroke="url(#paint7_linear)" stroke-width="5" stroke-linecap="round" stroke-dasharray="21 22 19 21 22 19"/>
<circle cx="264.714" cy="263.714" r="214" transform="rotate(90.0766 264.714 263.714)" stroke="url(#paint8_linear)" stroke-width="5" stroke-linecap="round" stroke-dasharray="7 22 34 7 22 34"/>
<circle cx="264.718" cy="263.718" r="211" transform="rotate(90.0766 264.718 263.718)" stroke="url(#paint9_linear)" stroke-width="5" stroke-linecap="round" stroke-dasharray="28 80"/>
<line x1="293" y1="84" x2="293" y2="401" stroke="white" stroke-width="12"/>
<path d="M427.913 309.349C419.696 321.569 405.35 341.179 385.16 358.58C362.192 378.375 332.03 395 295 395C257.07 395 223.006 384.849 198.602 368.752C174.149 352.624 160 331.021 160 308C160 284.979 174.149 263.376 198.602 247.248C223.006 231.151 257.07 221 295 221C331.807 221 358.401 238.166 379.699 258.355C389.236 267.394 397.588 276.918 405.358 285.779C406.307 286.861 407.247 287.934 408.18 288.994C414.925 296.661 421.462 303.935 427.913 309.349Z" stroke="url(#paint10_linear)" stroke-width="12" stroke-linejoin="round"/>
<defs>
<linearGradient id="paint0_linear" x1="264.018" y1="20.7379" x2="264.018" y2="506.738" gradientUnits="userSpaceOnUse">
<stop stop-color="#0DAAF5"/>
<stop offset="0.776042" stop-color="#0DAAF5"/>
<stop offset="1" stop-color="#8860D0"/>
</linearGradient>
<linearGradient id="paint1_linear" x1="263.367" y1="26.1136" x2="263.367" y2="502.114" gradientUnits="userSpaceOnUse">
<stop stop-color="#0DAAF5"/>
<stop offset="0.776042" stop-color="#0DAAF5"/>
<stop offset="1" stop-color="#8860D0"/>
</linearGradient>
<linearGradient id="paint2_linear" x1="264.686" y1="28.6855" x2="264.686" y2="498.686" gradientUnits="userSpaceOnUse">
<stop stop-color="#0DAAF5"/>
<stop offset="0.776042" stop-color="#0DAAF5"/>
<stop offset="1" stop-color="#8860D0"/>
</linearGradient>
<linearGradient id="paint3_linear" x1="264.694" y1="34.6936" x2="264.694" y2="492.694" gradientUnits="userSpaceOnUse">
<stop stop-color="#0DAAF5"/>
<stop offset="0.776042" stop-color="#0DAAF5"/>
<stop offset="1" stop-color="#8860D0"/>
</linearGradient>
<linearGradient id="paint4_linear" x1="264.698" y1="37.6976" x2="264.698" y2="489.698" gradientUnits="userSpaceOnUse">
<stop stop-color="#0DAAF5"/>
<stop offset="0.776042" stop-color="#0DAAF5"/>
<stop offset="1" stop-color="#8860D0"/>
</linearGradient>
<linearGradient id="paint5_linear" x1="264.702" y1="40.7016" x2="264.702" y2="486.702" gradientUnits="userSpaceOnUse">
<stop stop-color="#0DAAF5"/>
<stop offset="0.776042" stop-color="#0DAAF5"/>
<stop offset="1" stop-color="#8860D0"/>
</linearGradient>
<linearGradient id="paint6_linear" x1="263.582" y1="43.8211" x2="263.582" y2="483.821" gradientUnits="userSpaceOnUse">
<stop stop-color="#0DAAF5"/>
<stop offset="0.776042" stop-color="#0DAAF5"/>
<stop offset="1" stop-color="#8860D0"/>
</linearGradient>
<linearGradient id="paint7_linear" x1="263.367" y1="46.5841" x2="263.367" y2="480.584" gradientUnits="userSpaceOnUse">
<stop stop-color="#0DAAF5"/>
<stop offset="0.776042" stop-color="#0DAAF5"/>
<stop offset="1" stop-color="#8860D0"/>
</linearGradient>
<linearGradient id="paint8_linear" x1="264.714" y1="49.7137" x2="264.714" y2="477.714" gradientUnits="userSpaceOnUse">
<stop stop-color="#0DAAF5"/>
<stop offset="0.776042" stop-color="#0DAAF5"/>
<stop offset="1" stop-color="#8860D0"/>
</linearGradient>
<linearGradient id="paint9_linear" x1="264.718" y1="52.7177" x2="264.718" y2="474.718" gradientUnits="userSpaceOnUse">
<stop stop-color="#0DAAF5"/>
<stop offset="0.776042" stop-color="#0DAAF5"/>
<stop offset="1" stop-color="#8860D0"/>
</linearGradient>
<linearGradient id="paint10_linear" x1="154" y1="303" x2="419" y2="308" gradientUnits="userSpaceOnUse">
<stop stop-color="white"/>
<stop offset="0.770961" stop-color="white"/>
<stop offset="0.798078" stop-color="white" stop-opacity="0"/>
</linearGradient>
</defs>
</svg>
